<svg viewBox="0 0 761.4000244140625 400" xmlns="http://www.w3.org/2000/svg"><g><g><g><g><g><line x1="50" y1="366.1177781543325" x2="45" y2="366.1177781543325" style="visibility: inherit;" fill="rgb(0, 0, 0)" stroke="rgb(204, 204, 204)" stroke-width="1px"></line><line x1="50" y1="318.2727205543208" x2="45" y2="318.2727205543208" style="visibility: inherit;" fill="rgb(0, 0, 0)" stroke="rgb(204, 204, 204)" stroke-width="1px"></line><line x1="50" y1="270.4276629543092" x2="45" y2="270.4276629543092" style="visibility: inherit;" fill="rgb(0, 0, 0)" stroke="rgb(204, 204, 204)" stroke-width="1px"></line><line x1="50" y1="222.58260535429758" x2="45" y2="222.58260535429758" style="visibility: inherit;" fill="rgb(0, 0, 0)" stroke="rgb(204, 204, 204)" stroke-width="1px"></line><line x1="50" y1="174.7375477542859" x2="45" y2="174.7375477542859" style="visibility: inherit;" fill="rgb(0, 0, 0)" stroke="rgb(204, 204, 204)" stroke-width="1px"></line><line x1="50" y1="126.89249015427431" x2="45" y2="126.89249015427431" style="visibility: inherit;" fill="rgb(0, 0, 0)" stroke="rgb(204, 204, 204)" stroke-width="1px"></line><line x1="50" y1="79.04743255426268" x2="45" y2="79.04743255426268" style="visibility: inherit;" fill="rgb(0, 0, 0)" stroke="rgb(204, 204, 204)" stroke-width="1px"></line><line x1="50" y1="31.202374954251052" x2="45" y2="31.202374954251052" style="visibility: inherit;" fill="rgb(0, 0, 0)" stroke="rgb(204, 204, 204)" stroke-width="1px"></line></g><g transform="translate(40, 0)"><text x="0" y="366.1177781543325" dx="0em" dy="0.3em" style="text-anchor: end; visibility: inherit; font-family: Roboto, sans-serif; font-size: 12px; font-weight: 200;" fill="rgb(50, 49, 63)" stroke="none" stroke-width="1px">0</text><text x="0" y="318.2727205543208" dx="0em" dy="0.3em" style="text-anchor: end; visibility: inherit; font-family: Roboto, sans-serif; font-size: 12px; font-weight: 200;" fill="rgb(50, 49, 63)" stroke="none" stroke-width="1px">0.05</text><text x="0" y="270.4276629543092" dx="0em" dy="0.3em" style="text-anchor: end; visibility: inherit; font-family: Roboto, sans-serif; font-size: 12px; font-weight: 200;" fill="rgb(50, 49, 63)" stroke="none" stroke-width="1px">0.1</text><text x="0" y="222.58260535429758" dx="0em" dy="0.3em" style="text-anchor: end; visibility: inherit; font-family: Roboto, sans-serif; font-size: 12px; font-weight: 200;" fill="rgb(50, 49, 63)" stroke="none" stroke-width="1px">0.15</text><text x="0" y="174.7375477542859" dx="0em" dy="0.3em" style="text-anchor: end; visibility: inherit; font-family: Roboto, sans-serif; font-size: 12px; font-weight: 200;" fill="rgb(50, 49, 63)" stroke="none" stroke-width="1px">0.2</text><text x="0" y="126.89249015427431" dx="0em" dy="0.3em" style="text-anchor: end; visibility: inherit; font-family: Roboto, sans-serif; font-size: 12px; font-weight: 200;" fill="rgb(50, 49, 63)" stroke="none" stroke-width="1px">0.25</text><text x="0" y="79.04743255426268" dx="0em" dy="0.3em" style="text-anchor: end; visibility: inherit; font-family: Roboto, sans-serif; font-size: 12px; font-weight: 200;" fill="rgb(50, 49, 63)" stroke="none" stroke-width="1px">0.3</text><text x="0" y="31.202374954251052" dx="0em" dy="0.3em" style="text-anchor: end; visibility: inherit; font-family: Roboto, sans-serif; font-size: 12px; font-weight: 200;" fill="rgb(50, 49, 63)" stroke="none" stroke-width="1px">0.35</text></g><line x1="50" y1="0" x2="50" y2="378" fill="rgb(0, 0, 0)" stroke="rgb(204, 204, 204)" stroke-width="1px"></line></g></g><g transform="translate(50, 0)" clip-path="url(#clip_0)"><clipPath id="clip_0"><rect width="711" height="378"></rect></clipPath><g><g><g><line x1="33.29392107665381" y1="0" x2="33.29392107665381" y2="378" fill="rgb(0, 0, 0)" stroke="rgb(60, 60, 60)" stroke-width="1px" opacity="0.25"></line><line x1="93.32385754340497" y1="0" x2="93.32385754340497" y2="378" fill="rgb(0, 0, 0)" stroke="rgb(60, 60, 60)" stroke-width="1px" opacity="0.25"></line><line x1="153.35379401015615" y1="0" x2="153.35379401015615" y2="378" fill="rgb(0, 0, 0)" stroke="rgb(60, 60, 60)" stroke-width="1px" opacity="0.25"></line><line x1="213.38373047690735" y1="0" x2="213.38373047690735" y2="378" fill="rgb(0, 0, 0)" stroke="rgb(60, 60, 60)" stroke-width="1px" opacity="0.25"></line><line x1="273.41366694365854" y1="0" x2="273.41366694365854" y2="378" fill="rgb(0, 0, 0)" stroke="rgb(60, 60, 60)" stroke-width="1px" opacity="0.25"></line><line x1="333.44360341040965" y1="0" x2="333.44360341040965" y2="378" fill="rgb(0, 0, 0)" stroke="rgb(60, 60, 60)" stroke-width="1px" opacity="0.25"></line><line x1="393.4735398771608" y1="0" x2="393.4735398771608" y2="378" fill="rgb(0, 0, 0)" stroke="rgb(60, 60, 60)" stroke-width="1px" opacity="0.25"></line><line x1="453.50347634391204" y1="0" x2="453.50347634391204" y2="378" fill="rgb(0, 0, 0)" stroke="rgb(60, 60, 60)" stroke-width="1px" opacity="0.25"></line><line x1="513.5334128106632" y1="0" x2="513.5334128106632" y2="378" fill="rgb(0, 0, 0)" stroke="rgb(60, 60, 60)" stroke-width="1px" opacity="0.25"></line><line x1="573.5633492774143" y1="0" x2="573.5633492774143" y2="378" fill="rgb(0, 0, 0)" stroke="rgb(60, 60, 60)" stroke-width="1px" opacity="0.25"></line><line x1="633.5932857441655" y1="0" x2="633.5932857441655" y2="378" fill="rgb(0, 0, 0)" stroke="rgb(60, 60, 60)" stroke-width="1px" opacity="0.25"></line><line x1="693.6232222109167" y1="0" x2="693.6232222109167" y2="378" fill="rgb(0, 0, 0)" stroke="rgb(60, 60, 60)" stroke-width="1px" opacity="0.25"></line></g><g><line x1="0" y1="366.1177781543325" x2="711.4" y2="366.1177781543325" fill="rgb(0, 0, 0)" stroke="rgb(60, 60, 60)" stroke-width="1px" opacity="0.25"></line><line x1="0" y1="318.2727205543208" x2="711.4" y2="318.2727205543208" fill="rgb(0, 0, 0)" stroke="rgb(60, 60, 60)" stroke-width="1px" opacity="0.25"></line><line x1="0" y1="270.4276629543092" x2="711.4" y2="270.4276629543092" fill="rgb(0, 0, 0)" stroke="rgb(60, 60, 60)" stroke-width="1px" opacity="0.25"></line><line x1="0" y1="222.58260535429758" x2="711.4" y2="222.58260535429758" fill="rgb(0, 0, 0)" stroke="rgb(60, 60, 60)" stroke-width="1px" opacity="0.25"></line><line x1="0" y1="174.7375477542859" x2="711.4" y2="174.7375477542859" fill="rgb(0, 0, 0)" stroke="rgb(60, 60, 60)" stroke-width="1px" opacity="0.25"></line><line x1="0" y1="126.89249015427431" x2="711.4" y2="126.89249015427431" fill="rgb(0, 0, 0)" stroke="rgb(60, 60, 60)" stroke-width="1px" opacity="0.25"></line><line x1="0" y1="79.04743255426268" x2="711.4" y2="79.04743255426268" fill="rgb(0, 0, 0)" stroke="rgb(60, 60, 60)" stroke-width="1px" opacity="0.25"></line><line x1="0" y1="31.202374954251052" x2="711.4" y2="31.202374954251052" fill="rgb(0, 0, 0)" stroke="rgb(60, 60, 60)" stroke-width="1px" opacity="0.25"></line></g></g></g><g><g><line x1="0" y1="366.1177781543325" x2="711.4" y2="366.1177781543325" fill="rgb(0, 0, 0)" stroke="rgb(153, 153, 153)" stroke-width="1.5px"></line></g></g><g><g><line x1="33.29392107665381" y1="0" x2="33.29392107665381" y2="378" fill="rgb(0, 0, 0)" stroke="rgb(153, 153, 153)" stroke-width="1.5px"></line></g></g><g><g><g><g><g><path stroke="rgb(0, 119, 187)" stroke-width="2px" d="M33.29392107665381,326.9696919100107L45.29990837000405,337.7529961851916L57.30589566335428,306.3407582725502L69.31188295670451,249.1423533130832L81.31787025005474,230.15436681450572L93.32385754340497,310.0914721830941L105.32984483675521,246.56373839076792L117.33583213010543,303.29330232904965L129.3418194234557,273.75642493641476L141.3478067168059,275.1629408705014L153.35379401015615,282.89879276691636L165.35978130350637,230.85761765207988L177.3657685968566,145.9976993847191L189.37175589020683,256.8782052094981L201.37774318355713,308.6849562490074L213.38373047690735,205.30587111584694L225.3897177702576,269.5368700046856L237.3957050636078,242.10975938371152L249.40169235695802,150.21724718697908L261.4076796503083,128.65063150714806L273.41366694365854,199.91422432535836L285.41965423700873,174.3624777891254L297.425641530359,185.1457856290409L309.4316288237092,140.13720444357608L321.43761611705946,160.53172113517846L333.44360341040965,200.38305821707445L345.4495907037599,141.30930343180466L357.4555779971102,150.92051228349158L369.46156529046044,255.47168927541148L381.4675525838106,301.41794537377774L393.4735398771608,228.9822678262771L405.47952717051106,148.81073125289242L417.4855144638613,59.73123666539498L429.49150175721155,128.41621456129L441.4974890505618,55.042869230357184L453.50347634391204,134.74554339414914L465.5094636372622,90.67464425105486L477.5154509306124,87.86161238288155L489.52143822396266,197.57002634890114L501.5274255173129,117.16407282965838L513.5334128106632,292.041160597418L525.5394001040135,139.1995224012055L537.5453873973636,232.732981736821L549.5513746907138,203.89935518176026L561.5573619840641,118.57060302268333L573.5633492774143,239.76556140725432L585.5693365707646,121.85246878257281L597.5753238641148,73.32759063242214L609.581311157465,71.21780960182299L621.5872984508153,22.224097559956196" style="fill: none;" fill="none"></path></g><g><path stroke="rgb(255, 112, 67)" stroke-width="2px" d="M33.29392107665381,345.22954037655666L45.29990837000405,320.1636546867523L57.30589566335428,270.14182685100235L69.31188295670451,260.1374562932239L81.31787025005474,273.4399691889755L93.32385754340497,218.031175059238L105.32984483675521,208.0268045014596L117.33583213010543,215.7224675802407L129.3418194234557,200.2211907493506L141.3478067168059,204.72865503401724L153.35379401015615,173.94598845995455L165.35978130350637,209.1261829042943L177.3657685968566,181.86153862645324L189.37175589020683,159.65404070522706L201.37774318355713,127.44218648516079L213.38373047690735,165.92051613800456L225.3897177702576,197.1429283696258L237.3957050636078,158.22485305922348L249.40169235695802,153.05775602928065L261.4076796503083,149.2099244898901L273.41366694365854,148.77016457339326L285.41965423700873,117.98749799933057L297.425641530359,141.73413423988833L309.4316288237092,143.05338547150225L321.43761611705946,134.69808964744504L333.44360341040965,91.93216853871384L345.4495907037599,103.25579032810623L357.4555779971102,79.61911901981476L369.46156529046044,118.42724365688912L381.4675525838106,166.14038896678383L393.4735398771608,126.78255373988466L405.47952717051106,100.6172878648783L417.4855144638613,150.85899922361128L429.49150175721155,94.13092534438321L441.4974890505618,56.3122284368156L453.50347634391204,71.92345594103367L465.5094636372622,114.24960287432968L477.5154509306124,57.85136675614712L489.52143822396266,41.80039359437052L501.5274255173129,37.62275281181104L513.5334128106632,110.73158057810805L525.5394001040135,148.11054608705544L537.5453873973636,101.60671559438505L549.5513746907138,75.33151330498904L561.5573619840641,19.922733434189848L573.5633492774143,88.3042098281026L585.5693365707646,128.98131054555404L597.5753238641148,119.85644556183102L609.581311157465,40.04141096413631L621.5872984508153,127.77199572832971" style="fill: none;" fill="none"></path></g></g></g></g></g></g><g transform="translate(50, 378)" clip-path="url(#clip_1)"><clipPath id="clip_1"><rect width="711" height="22"></rect></clipPath><g><g><line x1="33.29392107665381" y1="0" x2="33.29392107665381" y2="5" style="visibility: inherit;" fill="rgb(0, 0, 0)" stroke="rgb(204, 204, 204)" stroke-width="1px"></line><line x1="93.32385754340497" y1="0" x2="93.32385754340497" y2="5" style="visibility: inherit;" fill="rgb(0, 0, 0)" stroke="rgb(204, 204, 204)" stroke-width="1px"></line><line x1="153.35379401015615" y1="0" x2="153.35379401015615" y2="5" style="visibility: inherit;" fill="rgb(0, 0, 0)" stroke="rgb(204, 204, 204)" stroke-width="1px"></line><line x1="213.38373047690735" y1="0" x2="213.38373047690735" y2="5" style="visibility: inherit;" fill="rgb(0, 0, 0)" stroke="rgb(204, 204, 204)" stroke-width="1px"></line><line x1="273.41366694365854" y1="0" x2="273.41366694365854" y2="5" style="visibility: inherit;" fill="rgb(0, 0, 0)" stroke="rgb(204, 204, 204)" stroke-width="1px"></line><line x1="333.44360341040965" y1="0" x2="333.44360341040965" y2="5" style="visibility: inherit;" fill="rgb(0, 0, 0)" stroke="rgb(204, 204, 204)" stroke-width="1px"></line><line x1="393.4735398771608" y1="0" x2="393.4735398771608" y2="5" style="visibility: inherit;" fill="rgb(0, 0, 0)" stroke="rgb(204, 204, 204)" stroke-width="1px"></line><line x1="453.50347634391204" y1="0" x2="453.50347634391204" y2="5" style="visibility: inherit;" fill="rgb(0, 0, 0)" stroke="rgb(204, 204, 204)" stroke-width="1px"></line><line x1="513.5334128106632" y1="0" x2="513.5334128106632" y2="5" style="visibility: inherit;" fill="rgb(0, 0, 0)" stroke="rgb(204, 204, 204)" stroke-width="1px"></line><line x1="573.5633492774143" y1="0" x2="573.5633492774143" y2="5" style="visibility: inherit;" fill="rgb(0, 0, 0)" stroke="rgb(204, 204, 204)" stroke-width="1px"></line><line x1="633.5932857441655" y1="0" x2="633.5932857441655" y2="5" style="visibility: inherit;" fill="rgb(0, 0, 0)" stroke="rgb(204, 204, 204)" stroke-width="1px"></line><line x1="693.6232222109167" y1="0" x2="693.6232222109167" y2="5" style="visibility: inherit;" fill="rgb(0, 0, 0)" stroke="rgb(204, 204, 204)" stroke-width="1px"></line></g><g transform="translate(0, 8)"><text x="33.29392107665381" y="0" dx="0em" dy="0.95em" style="text-anchor: middle; visibility: inherit; font-family: Roboto, sans-serif; font-size: 12px; font-weight: 200;" fill="rgb(50, 49, 63)" stroke="none" stroke-width="1px">0</text><text x="93.32385754340497" y="0" dx="0em" dy="0.95em" style="text-anchor: middle; visibility: inherit; font-family: Roboto, sans-serif; font-size: 12px; font-weight: 200;" fill="rgb(50, 49, 63)" stroke="none" stroke-width="1px">5</text><text x="153.35379401015615" y="0" dx="0em" dy="0.95em" style="text-anchor: middle; visibility: inherit; font-family: Roboto, sans-serif; font-size: 12px; font-weight: 200;" fill="rgb(50, 49, 63)" stroke="none" stroke-width="1px">10</text><text x="213.38373047690735" y="0" dx="0em" dy="0.95em" style="text-anchor: middle; visibility: inherit; font-family: Roboto, sans-serif; font-size: 12px; font-weight: 200;" fill="rgb(50, 49, 63)" stroke="none" stroke-width="1px">15</text><text x="273.41366694365854" y="0" dx="0em" dy="0.95em" style="text-anchor: middle; visibility: inherit; font-family: Roboto, sans-serif; font-size: 12px; font-weight: 200;" fill="rgb(50, 49, 63)" stroke="none" stroke-width="1px">20</text><text x="333.44360341040965" y="0" dx="0em" dy="0.95em" style="text-anchor: middle; visibility: inherit; font-family: Roboto, sans-serif; font-size: 12px; font-weight: 200;" fill="rgb(50, 49, 63)" stroke="none" stroke-width="1px">25</text><text x="393.4735398771608" y="0" dx="0em" dy="0.95em" style="text-anchor: middle; visibility: inherit; font-family: Roboto, sans-serif; font-size: 12px; font-weight: 200;" fill="rgb(50, 49, 63)" stroke="none" stroke-width="1px">30</text><text x="453.50347634391204" y="0" dx="0em" dy="0.95em" style="text-anchor: middle; visibility: inherit; font-family: Roboto, sans-serif; font-size: 12px; font-weight: 200;" fill="rgb(50, 49, 63)" stroke="none" stroke-width="1px">35</text><text x="513.5334128106632" y="0" dx="0em" dy="0.95em" style="text-anchor: middle; visibility: inherit; font-family: Roboto, sans-serif; font-size: 12px; font-weight: 200;" fill="rgb(50, 49, 63)" stroke="none" stroke-width="1px">40</text><text x="573.5633492774143" y="0" dx="0em" dy="0.95em" style="text-anchor: middle; visibility: inherit; font-family: Roboto, sans-serif; font-size: 12px; font-weight: 200;" fill="rgb(50, 49, 63)" stroke="none" stroke-width="1px">45</text><text x="633.5932857441655" y="0" dx="0em" dy="0.95em" style="text-anchor: middle; visibility: inherit; font-family: Roboto, sans-serif; font-size: 12px; font-weight: 200;" fill="rgb(50, 49, 63)" stroke="none" stroke-width="1px">50</text><text x="693.6232222109167" y="0" dx="0em" dy="0.95em" style="text-anchor: middle; visibility: inherit; font-family: Roboto, sans-serif; font-size: 12px; font-weight: 200;" fill="rgb(50, 49, 63)" stroke="none" stroke-width="1px">55</text></g><line x1="0" y1="0" x2="711.4" y2="0" fill="rgb(0, 0, 0)" stroke="rgb(204, 204, 204)" stroke-width="1px"></line></g></g></g></g></svg>