<svg viewBox="0 0 761.4000244140625 400" xmlns="http://www.w3.org/2000/svg"><g><g><g><g><g><line x1="30" y1="370.7844341072478" x2="25" y2="370.7844341072478" style="visibility: inherit;" fill="rgb(0, 0, 0)" stroke="rgb(204, 204, 204)" stroke-width="1px"></line><line x1="30" y1="332.0539535855202" x2="25" y2="332.0539535855202" style="visibility: inherit;" fill="rgb(0, 0, 0)" stroke="rgb(204, 204, 204)" stroke-width="1px"></line><line x1="30" y1="293.32347306379256" x2="25" y2="293.32347306379256" style="visibility: inherit;" fill="rgb(0, 0, 0)" stroke="rgb(204, 204, 204)" stroke-width="1px"></line><line x1="30" y1="254.59299254206496" x2="25" y2="254.59299254206496" style="visibility: inherit;" fill="rgb(0, 0, 0)" stroke="rgb(204, 204, 204)" stroke-width="1px"></line><line x1="30" y1="215.86251202033733" x2="25" y2="215.86251202033733" style="visibility: inherit;" fill="rgb(0, 0, 0)" stroke="rgb(204, 204, 204)" stroke-width="1px"></line><line x1="30" y1="177.13203149860973" x2="25" y2="177.13203149860973" style="visibility: inherit;" fill="rgb(0, 0, 0)" stroke="rgb(204, 204, 204)" stroke-width="1px"></line><line x1="30" y1="138.4015509768821" x2="25" y2="138.4015509768821" style="visibility: inherit;" fill="rgb(0, 0, 0)" stroke="rgb(204, 204, 204)" stroke-width="1px"></line><line x1="30" y1="99.67107045515449" x2="25" y2="99.67107045515449" style="visibility: inherit;" fill="rgb(0, 0, 0)" stroke="rgb(204, 204, 204)" stroke-width="1px"></line><line x1="30" y1="60.94058993342688" x2="25" y2="60.94058993342688" style="visibility: inherit;" fill="rgb(0, 0, 0)" stroke="rgb(204, 204, 204)" stroke-width="1px"></line><line x1="30" y1="22.21010941169926" x2="25" y2="22.21010941169926" style="visibility: inherit;" fill="rgb(0, 0, 0)" stroke="rgb(204, 204, 204)" stroke-width="1px"></line></g><g transform="translate(20, 0)"><text x="0" y="370.7844341072478" dx="0em" dy="0.3em" style="text-anchor: end; visibility: inherit; font-family: Roboto, sans-serif; font-size: 12px; font-weight: 200;" fill="rgb(50, 49, 63)" stroke="none" stroke-width="1px">0</text><text x="0" y="332.0539535855202" dx="0em" dy="0.3em" style="text-anchor: end; visibility: inherit; font-family: Roboto, sans-serif; font-size: 12px; font-weight: 200;" fill="rgb(50, 49, 63)" stroke="none" stroke-width="1px">5</text><text x="0" y="293.32347306379256" dx="0em" dy="0.3em" style="text-anchor: end; visibility: inherit; font-family: Roboto, sans-serif; font-size: 12px; font-weight: 200;" fill="rgb(50, 49, 63)" stroke="none" stroke-width="1px">10</text><text x="0" y="254.59299254206496" dx="0em" dy="0.3em" style="text-anchor: end; visibility: inherit; font-family: Roboto, sans-serif; font-size: 12px; font-weight: 200;" fill="rgb(50, 49, 63)" stroke="none" stroke-width="1px">15</text><text x="0" y="215.86251202033733" dx="0em" dy="0.3em" style="text-anchor: end; visibility: inherit; font-family: Roboto, sans-serif; font-size: 12px; font-weight: 200;" fill="rgb(50, 49, 63)" stroke="none" stroke-width="1px">20</text><text x="0" y="177.13203149860973" dx="0em" dy="0.3em" style="text-anchor: end; visibility: inherit; font-family: Roboto, sans-serif; font-size: 12px; font-weight: 200;" fill="rgb(50, 49, 63)" stroke="none" stroke-width="1px">25</text><text x="0" y="138.4015509768821" dx="0em" dy="0.3em" style="text-anchor: end; visibility: inherit; font-family: Roboto, sans-serif; font-size: 12px; font-weight: 200;" fill="rgb(50, 49, 63)" stroke="none" stroke-width="1px">30</text><text x="0" y="99.67107045515449" dx="0em" dy="0.3em" style="text-anchor: end; visibility: inherit; font-family: Roboto, sans-serif; font-size: 12px; font-weight: 200;" fill="rgb(50, 49, 63)" stroke="none" stroke-width="1px">35</text><text x="0" y="60.94058993342688" dx="0em" dy="0.3em" style="text-anchor: end; visibility: inherit; font-family: Roboto, sans-serif; font-size: 12px; font-weight: 200;" fill="rgb(50, 49, 63)" stroke="none" stroke-width="1px">40</text><text x="0" y="22.21010941169926" dx="0em" dy="0.3em" style="text-anchor: end; visibility: inherit; font-family: Roboto, sans-serif; font-size: 12px; font-weight: 200;" fill="rgb(50, 49, 63)" stroke="none" stroke-width="1px">45</text></g><line x1="30" y1="0" x2="30" y2="378" fill="rgb(0, 0, 0)" stroke="rgb(204, 204, 204)" stroke-width="1px"></line></g></g><g transform="translate(30, 0)" clip-path="url(#clip_0)"><clipPath id="clip_0"><rect width="731" height="378"></rect></clipPath><g><g><g><line x1="4.781699989505714" y1="0" x2="4.781699989505714" y2="378" fill="rgb(0, 0, 0)" stroke="rgb(60, 60, 60)" stroke-width="1px" opacity="0.25"></line><line x1="69.73005182313686" y1="0" x2="69.73005182313686" y2="378" fill="rgb(0, 0, 0)" stroke="rgb(60, 60, 60)" stroke-width="1px" opacity="0.25"></line><line x1="134.67840365676798" y1="0" x2="134.67840365676798" y2="378" fill="rgb(0, 0, 0)" stroke="rgb(60, 60, 60)" stroke-width="1px" opacity="0.25"></line><line x1="199.62675549039912" y1="0" x2="199.62675549039912" y2="378" fill="rgb(0, 0, 0)" stroke="rgb(60, 60, 60)" stroke-width="1px" opacity="0.25"></line><line x1="264.5751073240303" y1="0" x2="264.5751073240303" y2="378" fill="rgb(0, 0, 0)" stroke="rgb(60, 60, 60)" stroke-width="1px" opacity="0.25"></line><line x1="329.5234591576614" y1="0" x2="329.5234591576614" y2="378" fill="rgb(0, 0, 0)" stroke="rgb(60, 60, 60)" stroke-width="1px" opacity="0.25"></line><line x1="394.47181099129256" y1="0" x2="394.47181099129256" y2="378" fill="rgb(0, 0, 0)" stroke="rgb(60, 60, 60)" stroke-width="1px" opacity="0.25"></line><line x1="459.4201628249237" y1="0" x2="459.4201628249237" y2="378" fill="rgb(0, 0, 0)" stroke="rgb(60, 60, 60)" stroke-width="1px" opacity="0.25"></line><line x1="524.3685146585549" y1="0" x2="524.3685146585549" y2="378" fill="rgb(0, 0, 0)" stroke="rgb(60, 60, 60)" stroke-width="1px" opacity="0.25"></line><line x1="589.316866492186" y1="0" x2="589.316866492186" y2="378" fill="rgb(0, 0, 0)" stroke="rgb(60, 60, 60)" stroke-width="1px" opacity="0.25"></line><line x1="654.2652183258172" y1="0" x2="654.2652183258172" y2="378" fill="rgb(0, 0, 0)" stroke="rgb(60, 60, 60)" stroke-width="1px" opacity="0.25"></line><line x1="719.2135701594483" y1="0" x2="719.2135701594483" y2="378" fill="rgb(0, 0, 0)" stroke="rgb(60, 60, 60)" stroke-width="1px" opacity="0.25"></line></g><g><line x1="0" y1="370.7844341072478" x2="731.4" y2="370.7844341072478" fill="rgb(0, 0, 0)" stroke="rgb(60, 60, 60)" stroke-width="1px" opacity="0.25"></line><line x1="0" y1="332.0539535855202" x2="731.4" y2="332.0539535855202" fill="rgb(0, 0, 0)" stroke="rgb(60, 60, 60)" stroke-width="1px" opacity="0.25"></line><line x1="0" y1="293.32347306379256" x2="731.4" y2="293.32347306379256" fill="rgb(0, 0, 0)" stroke="rgb(60, 60, 60)" stroke-width="1px" opacity="0.25"></line><line x1="0" y1="254.59299254206496" x2="731.4" y2="254.59299254206496" fill="rgb(0, 0, 0)" stroke="rgb(60, 60, 60)" stroke-width="1px" opacity="0.25"></line><line x1="0" y1="215.86251202033733" x2="731.4" y2="215.86251202033733" fill="rgb(0, 0, 0)" stroke="rgb(60, 60, 60)" stroke-width="1px" opacity="0.25"></line><line x1="0" y1="177.13203149860973" x2="731.4" y2="177.13203149860973" fill="rgb(0, 0, 0)" stroke="rgb(60, 60, 60)" stroke-width="1px" opacity="0.25"></line><line x1="0" y1="138.4015509768821" x2="731.4" y2="138.4015509768821" fill="rgb(0, 0, 0)" stroke="rgb(60, 60, 60)" stroke-width="1px" opacity="0.25"></line><line x1="0" y1="99.67107045515449" x2="731.4" y2="99.67107045515449" fill="rgb(0, 0, 0)" stroke="rgb(60, 60, 60)" stroke-width="1px" opacity="0.25"></line><line x1="0" y1="60.94058993342688" x2="731.4" y2="60.94058993342688" fill="rgb(0, 0, 0)" stroke="rgb(60, 60, 60)" stroke-width="1px" opacity="0.25"></line><line x1="0" y1="22.21010941169926" x2="731.4" y2="22.21010941169926" fill="rgb(0, 0, 0)" stroke="rgb(60, 60, 60)" stroke-width="1px" opacity="0.25"></line></g></g></g><g><g><line x1="0" y1="370.7844341072478" x2="731.4" y2="370.7844341072478" fill="rgb(0, 0, 0)" stroke="rgb(153, 153, 153)" stroke-width="1.5px"></line></g></g><g><g><line x1="4.781699989505714" y1="0" x2="4.781699989505714" y2="378" fill="rgb(0, 0, 0)" stroke="rgb(153, 153, 153)" stroke-width="1.5px"></line></g></g><g><g><g><g><g><path stroke="rgb(0, 119, 187)" stroke-width="2px" d="M4.781699989505714,17.846252276376863L11.276535172868828,198.16105840822868L17.771370356231944,296.18462998725266L24.266205539595056,283.3904324470619L30.76104072295817,299.98472152971465L37.255875906321286,325.35442437503343L43.7507110896844,328.51995458639954L50.245546273047516,337.9891606739709L56.74038145641064,350.48992729462435L63.235216639773746,350.299389727204L69.73005182313686,336.92365655728474L76.22488700649997,341.5425973823035L82.71972218986309,349.85760060753285L89.2145573732262,361.81046299072403L95.70939255658931,341.51266608033706L102.20422773995243,345.98376396611224L108.69906292331552,340.80659983472657L115.19389810667865,344.50779452889435L121.68873329004177,328.6202439318667L128.18356847340488,348.5526756241266L134.67840365676798,356.53300305002494L141.1732388401311,360.39723718607286L147.66807402349423,356.530002901938L154.16290920685734,355.4217570633378L160.65774439022044,343.8103159647884L167.15257957358355,354.6356702474241L173.6474147569467,316.63223946318965L180.1422499403098,290.4060104986744L186.6370851236729,298.8594803923949L193.13192030703604,302.63667883809774L199.62675549039912,328.14846810583225L206.12159067376223,346.27761780587844L212.61642585712536,335.46391322107735L219.11126104048847,340.65625261674745L225.6060962238516,340.193906619049L232.10093140721472,360.1695869834537L238.5957665905778,358.54891326607117L245.09060177394093,359.67613234035673L251.58543695730404,137.57271597520807L258.08027214066715,223.444419041569L264.5751073240303,280.0052829003934L271.06994250739336,321.3891871002062L277.5647776907565,343.1556945484232L284.05961287411964,318.3884110968014L290.5544480574827,343.3235015386483L297.04928324084585,305.0303630103418L303.54411842420893,303.4882813532315L310.03895360757207,313.63490591963955L316.5337887909352,316.3540872294775L323.0286239742983,343.2107646720326" style="fill: none;" fill="none"></path></g><g><path stroke="rgb(255, 112, 67)" stroke-width="2px" d="M4.781699989505714,31.974816696435166L11.276535172868828,179.89987264334692L17.771370356231944,305.105749926259L24.266205539595056,298.03574998247973L30.76104072295817,314.8509400888143L37.255875906321286,338.7526701981872L43.7507110896844,351.47757899973556L50.245546273047516,352.82447096690714L56.74038145641064,355.72740003533715L63.235216639773746,359.0909511013185L69.73005182313686,358.8025056540869L76.22488700649997,353.35099003060986L82.71972218986309,358.2581232894481L89.2145573732262,364.3678436086537L95.70939255658931,363.4897988834421L102.20422773995243,363.3867974927514L108.69906292331552,368.62428754733827L115.19389810667865,353.2332169043247L121.68873329004177,356.54249197638416L128.18356847340488,348.4621300652439L134.67840365676798,360.33713541982706L141.1732388401311,364.5155383411359L147.66807402349423,364.42047409199057L154.16290920685734,367.59003381896576L160.65774439022044,363.5190417857783L167.15257957358355,342.59218566260125L173.6474147569467,336.23079502624574L180.1422499403098,267.6906879806922L186.6370851236729,323.3013664343371L193.13192030703604,358.55791740395836L199.62675549039912,350.7364399241352L206.12159067376223,352.074448719686L212.61642585712536,345.7019827444095L219.11126104048847,364.8725855124895L225.6060962238516,345.37330539443906L232.10093140721472,368.4397816719166L238.5957665905778,369.00737132241477L245.09060177394093,364.3990746054285L251.58543695730404,330.4543363091428L258.08027214066715,237.20096140522435L264.5751073240303,234.966228753783L271.06994250739336,326.29877015678983L277.5647776907565,348.13074713389625L284.05961287411964,358.31698492061213L290.5544480574827,296.79205424479426L297.04928324084585,343.18389908002257L303.54411842420893,338.129825050202L310.03895360757207,354.97767235482576L316.5337887909352,365.52342557877284L323.0286239742983,368.9004457998946" style="fill: none;" fill="none"></path></g></g></g></g></g></g><g transform="translate(30, 378)" clip-path="url(#clip_1)"><clipPath id="clip_1"><rect width="731" height="22"></rect></clipPath><g><g><line x1="4.781699989505714" y1="0" x2="4.781699989505714" y2="5" style="visibility: inherit;" fill="rgb(0, 0, 0)" stroke="rgb(204, 204, 204)" stroke-width="1px"></line><line x1="69.73005182313686" y1="0" x2="69.73005182313686" y2="5" style="visibility: inherit;" fill="rgb(0, 0, 0)" stroke="rgb(204, 204, 204)" stroke-width="1px"></line><line x1="134.67840365676798" y1="0" x2="134.67840365676798" y2="5" style="visibility: inherit;" fill="rgb(0, 0, 0)" stroke="rgb(204, 204, 204)" stroke-width="1px"></line><line x1="199.62675549039912" y1="0" x2="199.62675549039912" y2="5" style="visibility: inherit;" fill="rgb(0, 0, 0)" stroke="rgb(204, 204, 204)" stroke-width="1px"></line><line x1="264.5751073240303" y1="0" x2="264.5751073240303" y2="5" style="visibility: inherit;" fill="rgb(0, 0, 0)" stroke="rgb(204, 204, 204)" stroke-width="1px"></line><line x1="329.5234591576614" y1="0" x2="329.5234591576614" y2="5" style="visibility: inherit;" fill="rgb(0, 0, 0)" stroke="rgb(204, 204, 204)" stroke-width="1px"></line><line x1="394.47181099129256" y1="0" x2="394.47181099129256" y2="5" style="visibility: inherit;" fill="rgb(0, 0, 0)" stroke="rgb(204, 204, 204)" stroke-width="1px"></line><line x1="459.4201628249237" y1="0" x2="459.4201628249237" y2="5" style="visibility: inherit;" fill="rgb(0, 0, 0)" stroke="rgb(204, 204, 204)" stroke-width="1px"></line><line x1="524.3685146585549" y1="0" x2="524.3685146585549" y2="5" style="visibility: inherit;" fill="rgb(0, 0, 0)" stroke="rgb(204, 204, 204)" stroke-width="1px"></line><line x1="589.316866492186" y1="0" x2="589.316866492186" y2="5" style="visibility: inherit;" fill="rgb(0, 0, 0)" stroke="rgb(204, 204, 204)" stroke-width="1px"></line><line x1="654.2652183258172" y1="0" x2="654.2652183258172" y2="5" style="visibility: inherit;" fill="rgb(0, 0, 0)" stroke="rgb(204, 204, 204)" stroke-width="1px"></line><line x1="719.2135701594483" y1="0" x2="719.2135701594483" y2="5" style="visibility: inherit;" fill="rgb(0, 0, 0)" stroke="rgb(204, 204, 204)" stroke-width="1px"></line></g><g transform="translate(0, 8)"><text x="4.781699989505714" y="0" dx="0em" dy="0.95em" style="text-anchor: middle; visibility: inherit; font-family: Roboto, sans-serif; font-size: 12px; font-weight: 200;" fill="rgb(50, 49, 63)" stroke="none" stroke-width="1px">0</text><text x="69.73005182313686" y="0" dx="0em" dy="0.95em" style="text-anchor: middle; visibility: inherit; font-family: Roboto, sans-serif; font-size: 12px; font-weight: 200;" fill="rgb(50, 49, 63)" stroke="none" stroke-width="1px">10</text><text x="134.67840365676798" y="0" dx="0em" dy="0.95em" style="text-anchor: middle; visibility: inherit; font-family: Roboto, sans-serif; font-size: 12px; font-weight: 200;" fill="rgb(50, 49, 63)" stroke="none" stroke-width="1px">20</text><text x="199.62675549039912" y="0" dx="0em" dy="0.95em" style="text-anchor: middle; visibility: inherit; font-family: Roboto, sans-serif; font-size: 12px; font-weight: 200;" fill="rgb(50, 49, 63)" stroke="none" stroke-width="1px">30</text><text x="264.5751073240303" y="0" dx="0em" dy="0.95em" style="text-anchor: middle; visibility: inherit; font-family: Roboto, sans-serif; font-size: 12px; font-weight: 200;" fill="rgb(50, 49, 63)" stroke="none" stroke-width="1px">40</text><text x="329.5234591576614" y="0" dx="0em" dy="0.95em" style="text-anchor: middle; visibility: inherit; font-family: Roboto, sans-serif; font-size: 12px; font-weight: 200;" fill="rgb(50, 49, 63)" stroke="none" stroke-width="1px">50</text><text x="394.47181099129256" y="0" dx="0em" dy="0.95em" style="text-anchor: middle; visibility: inherit; font-family: Roboto, sans-serif; font-size: 12px; font-weight: 200;" fill="rgb(50, 49, 63)" stroke="none" stroke-width="1px">60</text><text x="459.4201628249237" y="0" dx="0em" dy="0.95em" style="text-anchor: middle; visibility: inherit; font-family: Roboto, sans-serif; font-size: 12px; font-weight: 200;" fill="rgb(50, 49, 63)" stroke="none" stroke-width="1px">70</text><text x="524.3685146585549" y="0" dx="0em" dy="0.95em" style="text-anchor: middle; visibility: inherit; font-family: Roboto, sans-serif; font-size: 12px; font-weight: 200;" fill="rgb(50, 49, 63)" stroke="none" stroke-width="1px">80</text><text x="589.316866492186" y="0" dx="0em" dy="0.95em" style="text-anchor: middle; visibility: inherit; font-family: Roboto, sans-serif; font-size: 12px; font-weight: 200;" fill="rgb(50, 49, 63)" stroke="none" stroke-width="1px">90</text><text x="654.2652183258172" y="0" dx="0em" dy="0.95em" style="text-anchor: middle; visibility: inherit; font-family: Roboto, sans-serif; font-size: 12px; font-weight: 200;" fill="rgb(50, 49, 63)" stroke="none" stroke-width="1px">100</text><text x="719.2135701594483" y="0" dx="0em" dy="0.95em" style="text-anchor: middle; visibility: inherit; font-family: Roboto, sans-serif; font-size: 12px; font-weight: 200;" fill="rgb(50, 49, 63)" stroke="none" stroke-width="1px">110</text></g><line x1="0" y1="0" x2="731.4" y2="0" fill="rgb(0, 0, 0)" stroke="rgb(204, 204, 204)" stroke-width="1px"></line></g></g></g></g></svg>