<svg viewBox="0 0 761.4000244140625 400" xmlns="http://www.w3.org/2000/svg"><g><g><g><g><g><line x1="40" y1="335.73589190144537" x2="35" y2="335.73589190144537" style="visibility: inherit;" fill="rgb(0, 0, 0)" stroke="rgb(204, 204, 204)" stroke-width="1px"></line><line x1="40" y1="286.39395150679405" x2="35" y2="286.39395150679405" style="visibility: inherit;" fill="rgb(0, 0, 0)" stroke="rgb(204, 204, 204)" stroke-width="1px"></line><line x1="40" y1="237.0520111121427" x2="35" y2="237.0520111121427" style="visibility: inherit;" fill="rgb(0, 0, 0)" stroke="rgb(204, 204, 204)" stroke-width="1px"></line><line x1="40" y1="187.71007071749136" x2="35" y2="187.71007071749136" style="visibility: inherit;" fill="rgb(0, 0, 0)" stroke="rgb(204, 204, 204)" stroke-width="1px"></line><line x1="40" y1="138.36813032284002" x2="35" y2="138.36813032284002" style="visibility: inherit;" fill="rgb(0, 0, 0)" stroke="rgb(204, 204, 204)" stroke-width="1px"></line><line x1="40" y1="89.02618992818867" x2="35" y2="89.02618992818867" style="visibility: inherit;" fill="rgb(0, 0, 0)" stroke="rgb(204, 204, 204)" stroke-width="1px"></line><line x1="40" y1="39.68424953353731" x2="35" y2="39.68424953353731" style="visibility: inherit;" fill="rgb(0, 0, 0)" stroke="rgb(204, 204, 204)" stroke-width="1px"></line></g><g transform="translate(30, 0)"><text x="0" y="335.73589190144537" dx="0em" dy="0.3em" style="text-anchor: end; visibility: inherit; font-family: Roboto, sans-serif; font-size: 12px; font-weight: 200;" fill="rgb(50, 49, 63)" stroke="none" stroke-width="1px">2</text><text x="0" y="286.39395150679405" dx="0em" dy="0.3em" style="text-anchor: end; visibility: inherit; font-family: Roboto, sans-serif; font-size: 12px; font-weight: 200;" fill="rgb(50, 49, 63)" stroke="none" stroke-width="1px">2.5</text><text x="0" y="237.0520111121427" dx="0em" dy="0.3em" style="text-anchor: end; visibility: inherit; font-family: Roboto, sans-serif; font-size: 12px; font-weight: 200;" fill="rgb(50, 49, 63)" stroke="none" stroke-width="1px">3</text><text x="0" y="187.71007071749136" dx="0em" dy="0.3em" style="text-anchor: end; visibility: inherit; font-family: Roboto, sans-serif; font-size: 12px; font-weight: 200;" fill="rgb(50, 49, 63)" stroke="none" stroke-width="1px">3.5</text><text x="0" y="138.36813032284002" dx="0em" dy="0.3em" style="text-anchor: end; visibility: inherit; font-family: Roboto, sans-serif; font-size: 12px; font-weight: 200;" fill="rgb(50, 49, 63)" stroke="none" stroke-width="1px">4</text><text x="0" y="89.02618992818867" dx="0em" dy="0.3em" style="text-anchor: end; visibility: inherit; font-family: Roboto, sans-serif; font-size: 12px; font-weight: 200;" fill="rgb(50, 49, 63)" stroke="none" stroke-width="1px">4.5</text><text x="0" y="39.68424953353731" dx="0em" dy="0.3em" style="text-anchor: end; visibility: inherit; font-family: Roboto, sans-serif; font-size: 12px; font-weight: 200;" fill="rgb(50, 49, 63)" stroke="none" stroke-width="1px">5</text></g><line x1="40" y1="0" x2="40" y2="378" fill="rgb(0, 0, 0)" stroke="rgb(204, 204, 204)" stroke-width="1px"></line></g></g><g transform="translate(40, 0)" clip-path="url(#clip_0)"><clipPath id="clip_0"><rect width="721" height="378"></rect></clipPath><g><g><g><line x1="22.872320148541878" y1="0" x2="22.872320148541878" y2="378" fill="rgb(0, 0, 0)" stroke="rgb(60, 60, 60)" stroke-width="1px" opacity="0.25"></line><line x1="85.65058434730801" y1="0" x2="85.65058434730801" y2="378" fill="rgb(0, 0, 0)" stroke="rgb(60, 60, 60)" stroke-width="1px" opacity="0.25"></line><line x1="148.42884854607416" y1="0" x2="148.42884854607416" y2="378" fill="rgb(0, 0, 0)" stroke="rgb(60, 60, 60)" stroke-width="1px" opacity="0.25"></line><line x1="211.2071127448403" y1="0" x2="211.2071127448403" y2="378" fill="rgb(0, 0, 0)" stroke="rgb(60, 60, 60)" stroke-width="1px" opacity="0.25"></line><line x1="273.9853769436064" y1="0" x2="273.9853769436064" y2="378" fill="rgb(0, 0, 0)" stroke="rgb(60, 60, 60)" stroke-width="1px" opacity="0.25"></line><line x1="336.7636411423726" y1="0" x2="336.7636411423726" y2="378" fill="rgb(0, 0, 0)" stroke="rgb(60, 60, 60)" stroke-width="1px" opacity="0.25"></line><line x1="399.54190534113866" y1="0" x2="399.54190534113866" y2="378" fill="rgb(0, 0, 0)" stroke="rgb(60, 60, 60)" stroke-width="1px" opacity="0.25"></line><line x1="462.32016953990484" y1="0" x2="462.32016953990484" y2="378" fill="rgb(0, 0, 0)" stroke="rgb(60, 60, 60)" stroke-width="1px" opacity="0.25"></line><line x1="525.0984337386709" y1="0" x2="525.0984337386709" y2="378" fill="rgb(0, 0, 0)" stroke="rgb(60, 60, 60)" stroke-width="1px" opacity="0.25"></line><line x1="587.8766979374371" y1="0" x2="587.8766979374371" y2="378" fill="rgb(0, 0, 0)" stroke="rgb(60, 60, 60)" stroke-width="1px" opacity="0.25"></line><line x1="650.6549621362033" y1="0" x2="650.6549621362033" y2="378" fill="rgb(0, 0, 0)" stroke="rgb(60, 60, 60)" stroke-width="1px" opacity="0.25"></line><line x1="713.4332263349694" y1="0" x2="713.4332263349694" y2="378" fill="rgb(0, 0, 0)" stroke="rgb(60, 60, 60)" stroke-width="1px" opacity="0.25"></line></g><g><line x1="0" y1="335.73589190144537" x2="721.4" y2="335.73589190144537" fill="rgb(0, 0, 0)" stroke="rgb(60, 60, 60)" stroke-width="1px" opacity="0.25"></line><line x1="0" y1="286.39395150679405" x2="721.4" y2="286.39395150679405" fill="rgb(0, 0, 0)" stroke="rgb(60, 60, 60)" stroke-width="1px" opacity="0.25"></line><line x1="0" y1="237.0520111121427" x2="721.4" y2="237.0520111121427" fill="rgb(0, 0, 0)" stroke="rgb(60, 60, 60)" stroke-width="1px" opacity="0.25"></line><line x1="0" y1="187.71007071749136" x2="721.4" y2="187.71007071749136" fill="rgb(0, 0, 0)" stroke="rgb(60, 60, 60)" stroke-width="1px" opacity="0.25"></line><line x1="0" y1="138.36813032284002" x2="721.4" y2="138.36813032284002" fill="rgb(0, 0, 0)" stroke="rgb(60, 60, 60)" stroke-width="1px" opacity="0.25"></line><line x1="0" y1="89.02618992818867" x2="721.4" y2="89.02618992818867" fill="rgb(0, 0, 0)" stroke="rgb(60, 60, 60)" stroke-width="1px" opacity="0.25"></line><line x1="0" y1="39.68424953353731" x2="721.4" y2="39.68424953353731" fill="rgb(0, 0, 0)" stroke="rgb(60, 60, 60)" stroke-width="1px" opacity="0.25"></line></g></g></g><g><g><line x1="0" y1="533.1036534800509" x2="721.4" y2="533.1036534800509" fill="rgb(0, 0, 0)" stroke="rgb(153, 153, 153)" stroke-width="1.5px"></line></g></g><g><g><line x1="22.872320148541878" y1="0" x2="22.872320148541878" y2="378" fill="rgb(0, 0, 0)" stroke="rgb(153, 153, 153)" stroke-width="1.5px"></line></g></g><g><g><g><g><g><path stroke="rgb(0, 119, 187)" stroke-width="2px" d="M22.872320148541878,229.2561025465901L29.150146568418492,200.2091464913003L35.42797298829511,163.49655679758058L41.70579940817172,200.07075437980754L47.98362582804833,224.3325008445262L54.26145224792496,183.86499577347402L60.53927866780157,238.10632748550276L66.81710508767819,238.16364186557695L73.09493150755479,228.25608896026264L79.37275792743141,223.67656176320907L85.65058434730801,198.3700513218093L91.92841076718463,231.52046759286316L98.20623718706125,270.3071978817476L104.48406360693787,237.3144902681804L110.76189002681447,219.37391290142358L117.03971644669109,221.98054079126783L123.3175428665677,204.3801793259367L129.59536928644434,255.95681586978657L135.87319570632093,265.4753085990307L142.15102212619755,269.0130834124449L148.42884854607416,258.6619793194628L154.70667496595078,254.17343517156644L160.9845013858274,242.1985412835018L167.262327805704,307.5359699171947L173.5401542255806,288.56523950562314L179.81798064545723,278.3150473076074L186.09580706533382,238.88952990090092L192.37363348521043,253.33287131995274L198.65145990508705,209.16124797607551L204.92928632496367,211.26228115597945L211.2071127448403,241.18325797933022L217.4849391647169,241.1516362523927L223.76276558459352,274.37985985304647L230.04059200447014,269.86567010815463L236.31841842434673,309.3685242830483L242.59624484422335,237.32138399287732L248.87407126409997,286.2426660125916L255.15189768397659,300.4414331373613L261.4297241038532,267.3471077867085L267.7075505237298,265.22169952562354L273.9853769436064,54.001268741333675L280.26320336348306,261.91212346932735L286.54102978335965,227.89025098991218L292.8188562032363,260.21883175358016L299.0966826231129,263.6103325518379L305.3745090429895,99.04825395329817L311.6523354628661,195.4680049770342L317.9301618827427,229.97869665202478L324.20798830261936,229.50949986736154L330.48581472249595,217.27342086714427" style="fill: none;" fill="none"></path></g><g><path stroke="rgb(255, 112, 67)" stroke-width="2px" d="M22.872320148541878,203.95740342464222L29.150146568418492,252.27201414295536L35.42797298829511,276.1146315573285L41.70579940817172,253.54394164164637L47.98362582804833,272.63986491708283L54.26145224792496,273.01153784895155L60.53927866780157,273.17371683985937L66.81710508767819,287.6393863979467L73.09493150755479,278.141010169098L79.37275792743141,283.5130098413812L85.65058434730801,303.98106666835594L91.92841076718463,283.2391195710841L98.20623718706125,305.71475608138866L104.48406360693787,306.13324987382697L110.76189002681447,313.0238218092994L117.03971644669109,287.37942474546725L123.3175428665677,299.7529076782105L129.59536928644434,314.07599712823145L135.87319570632093,302.91950364923946L142.15102212619755,307.46239764030963L148.42884854607416,291.5034484949689L154.70667496595078,316.9630325639395L160.9845013858274,294.0989476074014L167.262327805704,311.22735950380456L173.5401542255806,317.6812269201649L179.81798064545723,307.10538269644843L186.09580706533382,329.0465790822105L192.37363348521043,318.3847397603121L198.65145990508705,329.363925698976L204.92928632496367,299.8278681112632L211.2071127448403,317.5985257518722L217.4849391647169,322.1242442513767L223.76276558459352,287.9812963204583L230.04059200447014,303.89973012816034L236.31841842434673,329.80074785844135L242.59624484422335,324.8448421153915L248.87407126409997,302.83186158611284L255.15189768397659,322.0904814700111L261.4297241038532,318.4872750921526L267.7075505237298,339.8817732285698L273.9853769436064,298.3462819751168L280.26320336348306,269.80122672267714L286.54102978335965,314.5927441436541L292.8188562032363,331.71221537321486L299.0966826231129,343.2128304133584L305.3745090429895,321.5432656031122L311.6523354628661,272.6084314147104L317.9301618827427,271.3784074098257L324.20798830261936,349.30550665331924L330.48581472249595,268.6006363341605" style="fill: none;" fill="none"></path></g></g></g></g></g></g><g transform="translate(40, 378)" clip-path="url(#clip_1)"><clipPath id="clip_1"><rect width="721" height="22"></rect></clipPath><g><g><line x1="22.872320148541878" y1="0" x2="22.872320148541878" y2="5" style="visibility: inherit;" fill="rgb(0, 0, 0)" stroke="rgb(204, 204, 204)" stroke-width="1px"></line><line x1="85.65058434730801" y1="0" x2="85.65058434730801" y2="5" style="visibility: inherit;" fill="rgb(0, 0, 0)" stroke="rgb(204, 204, 204)" stroke-width="1px"></line><line x1="148.42884854607416" y1="0" x2="148.42884854607416" y2="5" style="visibility: inherit;" fill="rgb(0, 0, 0)" stroke="rgb(204, 204, 204)" stroke-width="1px"></line><line x1="211.2071127448403" y1="0" x2="211.2071127448403" y2="5" style="visibility: inherit;" fill="rgb(0, 0, 0)" stroke="rgb(204, 204, 204)" stroke-width="1px"></line><line x1="273.9853769436064" y1="0" x2="273.9853769436064" y2="5" style="visibility: inherit;" fill="rgb(0, 0, 0)" stroke="rgb(204, 204, 204)" stroke-width="1px"></line><line x1="336.7636411423726" y1="0" x2="336.7636411423726" y2="5" style="visibility: inherit;" fill="rgb(0, 0, 0)" stroke="rgb(204, 204, 204)" stroke-width="1px"></line><line x1="399.54190534113866" y1="0" x2="399.54190534113866" y2="5" style="visibility: inherit;" fill="rgb(0, 0, 0)" stroke="rgb(204, 204, 204)" stroke-width="1px"></line><line x1="462.32016953990484" y1="0" x2="462.32016953990484" y2="5" style="visibility: inherit;" fill="rgb(0, 0, 0)" stroke="rgb(204, 204, 204)" stroke-width="1px"></line><line x1="525.0984337386709" y1="0" x2="525.0984337386709" y2="5" style="visibility: inherit;" fill="rgb(0, 0, 0)" stroke="rgb(204, 204, 204)" stroke-width="1px"></line><line x1="587.8766979374371" y1="0" x2="587.8766979374371" y2="5" style="visibility: inherit;" fill="rgb(0, 0, 0)" stroke="rgb(204, 204, 204)" stroke-width="1px"></line><line x1="650.6549621362033" y1="0" x2="650.6549621362033" y2="5" style="visibility: inherit;" fill="rgb(0, 0, 0)" stroke="rgb(204, 204, 204)" stroke-width="1px"></line><line x1="713.4332263349694" y1="0" x2="713.4332263349694" y2="5" style="visibility: inherit;" fill="rgb(0, 0, 0)" stroke="rgb(204, 204, 204)" stroke-width="1px"></line></g><g transform="translate(0, 8)"><text x="22.872320148541878" y="0" dx="0em" dy="0.95em" style="text-anchor: middle; visibility: inherit; font-family: Roboto, sans-serif; font-size: 12px; font-weight: 200;" fill="rgb(50, 49, 63)" stroke="none" stroke-width="1px">0</text><text x="85.65058434730801" y="0" dx="0em" dy="0.95em" style="text-anchor: middle; visibility: inherit; font-family: Roboto, sans-serif; font-size: 12px; font-weight: 200;" fill="rgb(50, 49, 63)" stroke="none" stroke-width="1px">10</text><text x="148.42884854607416" y="0" dx="0em" dy="0.95em" style="text-anchor: middle; visibility: inherit; font-family: Roboto, sans-serif; font-size: 12px; font-weight: 200;" fill="rgb(50, 49, 63)" stroke="none" stroke-width="1px">20</text><text x="211.2071127448403" y="0" dx="0em" dy="0.95em" style="text-anchor: middle; visibility: inherit; font-family: Roboto, sans-serif; font-size: 12px; font-weight: 200;" fill="rgb(50, 49, 63)" stroke="none" stroke-width="1px">30</text><text x="273.9853769436064" y="0" dx="0em" dy="0.95em" style="text-anchor: middle; visibility: inherit; font-family: Roboto, sans-serif; font-size: 12px; font-weight: 200;" fill="rgb(50, 49, 63)" stroke="none" stroke-width="1px">40</text><text x="336.7636411423726" y="0" dx="0em" dy="0.95em" style="text-anchor: middle; visibility: inherit; font-family: Roboto, sans-serif; font-size: 12px; font-weight: 200;" fill="rgb(50, 49, 63)" stroke="none" stroke-width="1px">50</text><text x="399.54190534113866" y="0" dx="0em" dy="0.95em" style="text-anchor: middle; visibility: inherit; font-family: Roboto, sans-serif; font-size: 12px; font-weight: 200;" fill="rgb(50, 49, 63)" stroke="none" stroke-width="1px">60</text><text x="462.32016953990484" y="0" dx="0em" dy="0.95em" style="text-anchor: middle; visibility: inherit; font-family: Roboto, sans-serif; font-size: 12px; font-weight: 200;" fill="rgb(50, 49, 63)" stroke="none" stroke-width="1px">70</text><text x="525.0984337386709" y="0" dx="0em" dy="0.95em" style="text-anchor: middle; visibility: inherit; font-family: Roboto, sans-serif; font-size: 12px; font-weight: 200;" fill="rgb(50, 49, 63)" stroke="none" stroke-width="1px">80</text><text x="587.8766979374371" y="0" dx="0em" dy="0.95em" style="text-anchor: middle; visibility: inherit; font-family: Roboto, sans-serif; font-size: 12px; font-weight: 200;" fill="rgb(50, 49, 63)" stroke="none" stroke-width="1px">90</text><text x="650.6549621362033" y="0" dx="0em" dy="0.95em" style="text-anchor: middle; visibility: inherit; font-family: Roboto, sans-serif; font-size: 12px; font-weight: 200;" fill="rgb(50, 49, 63)" stroke="none" stroke-width="1px">100</text><text x="713.4332263349694" y="0" dx="0em" dy="0.95em" style="text-anchor: middle; visibility: hidden; font-family: Roboto, sans-serif; font-size: 12px; font-weight: 200;" fill="rgb(50, 49, 63)" stroke="none" stroke-width="1px">110</text></g><line x1="0" y1="0" x2="721.4" y2="0" fill="rgb(0, 0, 0)" stroke="rgb(204, 204, 204)" stroke-width="1px"></line></g></g></g></g></svg>